<mxfile host="app.diagrams.net" agent="Mozilla/5.0 (X11; Linux x86_64) AppleWebKit/537.36 (KHTML, like Gecko) Chrome/130.0.0.0 Safari/537.36" version="24.8.3">
  <diagram name="Page-1" id="GirjB6BvCu5ZiXoQ-rKx">
    <mxGraphModel dx="1687" dy="900" grid="1" gridSize="10" guides="1" tooltips="1" connect="1" arrows="1" fold="1" page="1" pageScale="1" pageWidth="827" pageHeight="1169" math="1" shadow="0">
      <root>
        <mxCell id="0" />
        <mxCell id="1" parent="0" />
        <mxCell id="WfYVW7RB1-EYjMAiuS7r-1" value="" style="rounded=0;whiteSpace=wrap;html=1;fillColor=#1ba1e2;fontColor=#ffffff;strokeColor=#006EAF;" vertex="1" parent="1">
          <mxGeometry x="160" y="250" width="120" height="60" as="geometry" />
        </mxCell>
        <mxCell id="WfYVW7RB1-EYjMAiuS7r-2" value="" style="rounded=0;whiteSpace=wrap;html=1;fillColor=#1ba1e2;fontColor=#ffffff;strokeColor=#006EAF;" vertex="1" parent="1">
          <mxGeometry x="350" y="250" width="120" height="60" as="geometry" />
        </mxCell>
        <mxCell id="WfYVW7RB1-EYjMAiuS7r-3" value="" style="rounded=0;whiteSpace=wrap;html=1;fillColor=#1ba1e2;fontColor=#ffffff;strokeColor=#006EAF;" vertex="1" parent="1">
          <mxGeometry x="850" y="250" width="120" height="60" as="geometry" />
        </mxCell>
        <mxCell id="WfYVW7RB1-EYjMAiuS7r-4" value="" style="endArrow=none;html=1;rounded=0;dashed=1;dashPattern=8 8;fillColor=#1ba1e2;strokeColor=#006EAF;strokeWidth=4;fontStyle=4" edge="1" parent="1">
          <mxGeometry width="50" height="50" relative="1" as="geometry">
            <mxPoint x="520" y="280" as="sourcePoint" />
            <mxPoint x="810" y="280" as="targetPoint" />
          </mxGeometry>
        </mxCell>
        <mxCell id="WfYVW7RB1-EYjMAiuS7r-5" style="edgeStyle=orthogonalEdgeStyle;rounded=0;orthogonalLoop=1;jettySize=auto;html=1;exitX=0.5;exitY=1;exitDx=0;exitDy=0;fillColor=#1ba1e2;strokeColor=#006EAF;" edge="1" parent="1" source="WfYVW7RB1-EYjMAiuS7r-2" target="WfYVW7RB1-EYjMAiuS7r-2">
          <mxGeometry relative="1" as="geometry" />
        </mxCell>
        <mxCell id="WfYVW7RB1-EYjMAiuS7r-6" value="" style="rounded=0;whiteSpace=wrap;html=1;fillColor=#1ba1e2;fontColor=#ffffff;strokeColor=#006EAF;" vertex="1" parent="1">
          <mxGeometry x="1000" y="250" width="120" height="60" as="geometry" />
        </mxCell>
        <mxCell id="WfYVW7RB1-EYjMAiuS7r-7" value="" style="rounded=0;whiteSpace=wrap;html=1;fillColor=#1ba1e2;fontColor=#ffffff;strokeColor=#006EAF;" vertex="1" parent="1">
          <mxGeometry x="1150" y="250" width="120" height="60" as="geometry" />
        </mxCell>
        <mxCell id="WfYVW7RB1-EYjMAiuS7r-8" value="" style="rounded=0;whiteSpace=wrap;html=1;fillColor=#d80073;fontColor=#ffffff;strokeColor=#A50040;" vertex="1" parent="1">
          <mxGeometry x="465" y="390" width="120" height="60" as="geometry" />
        </mxCell>
        <mxCell id="WfYVW7RB1-EYjMAiuS7r-9" value="" style="endArrow=none;html=1;rounded=0;dashed=1;dashPattern=8 8;fillColor=#d80073;strokeColor=#A50040;strokeWidth=4;fontStyle=4" edge="1" parent="1">
          <mxGeometry width="50" height="50" relative="1" as="geometry">
            <mxPoint x="635" y="420" as="sourcePoint" />
            <mxPoint x="785" y="420" as="targetPoint" />
          </mxGeometry>
        </mxCell>
        <mxCell id="WfYVW7RB1-EYjMAiuS7r-10" style="edgeStyle=orthogonalEdgeStyle;rounded=0;orthogonalLoop=1;jettySize=auto;html=1;exitX=0.5;exitY=1;exitDx=0;exitDy=0;fillColor=#d80073;strokeColor=#A50040;" edge="1" source="WfYVW7RB1-EYjMAiuS7r-8" target="WfYVW7RB1-EYjMAiuS7r-8" parent="1">
          <mxGeometry relative="1" as="geometry" />
        </mxCell>
        <mxCell id="WfYVW7RB1-EYjMAiuS7r-11" value="" style="rounded=0;whiteSpace=wrap;html=1;fillColor=#d80073;fontColor=#ffffff;strokeColor=#A50040;" vertex="1" parent="1">
          <mxGeometry x="835" y="390" width="120" height="60" as="geometry" />
        </mxCell>
        <mxCell id="WfYVW7RB1-EYjMAiuS7r-12" value="" style="shape=curlyBracket;whiteSpace=wrap;html=1;rounded=1;labelPosition=left;verticalLabelPosition=middle;align=right;verticalAlign=middle;rotation=90;fillColor=#1ba1e2;fontColor=#ffffff;strokeColor=#006EAF;" vertex="1" parent="1">
          <mxGeometry x="682.5" y="-292.5" width="55" height="1000" as="geometry" />
        </mxCell>
        <mxCell id="WfYVW7RB1-EYjMAiuS7r-13" value="&lt;font style=&quot;font-size: 36px;&quot;&gt;&lt;svg style=&quot;vertical-align: -0.025ex;&quot; xmlns:xlink=&quot;http://www.w3.org/1999/xlink&quot; viewBox=&quot;0 -442 600 453&quot; role=&quot;img&quot; height=&quot;1.025ex&quot; width=&quot;1.357ex&quot; xmlns=&quot;http://www.w3.org/2000/svg&quot;&gt;&lt;defs&gt;&lt;path d=&quot;M21 287Q22 293 24 303T36 341T56 388T89 425T135 442Q171 442 195 424T225 390T231 369Q231 367 232 367L243 378Q304 442 382 442Q436 442 469 415T503 336T465 179T427 52Q427 26 444 26Q450 26 453 27Q482 32 505 65T540 145Q542 153 560 153Q580 153 580 145Q580 144 576 130Q568 101 554 73T508 17T439 -10Q392 -10 371 17T350 73Q350 92 386 193T423 345Q423 404 379 404H374Q288 404 229 303L222 291L189 157Q156 26 151 16Q138 -11 108 -11Q95 -11 87 -5T76 7T74 17Q74 30 112 180T152 343Q153 348 153 366Q153 405 129 405Q91 405 66 305Q60 285 60 284Q58 278 41 278H27Q21 284 21 287Z&quot; id=&quot;MJX-2-TEX-I-1D45B&quot;&gt;&lt;/path&gt;&lt;/defs&gt;&lt;g transform=&quot;scale(1,-1)&quot; stroke-width=&quot;0&quot; fill=&quot;currentColor&quot; stroke=&quot;currentColor&quot;&gt;&lt;g data-mml-node=&quot;math&quot;&gt;&lt;g data-mml-node=&quot;mi&quot;&gt;&lt;use xlink:href=&quot;#MJX-2-TEX-I-1D45B&quot; data-c=&quot;1D45B&quot;&gt;&lt;/use&gt;&lt;/g&gt;&lt;/g&gt;&lt;/g&gt;&lt;/svg&gt;&lt;/font&gt;&lt;span style=&quot;font-size: 36px;&quot;&gt;&amp;nbsp;Data Blocks&lt;/span&gt;" style="text;html=1;align=center;verticalAlign=middle;whiteSpace=wrap;rounded=0;labelBackgroundColor=none;fillColor=#1ba1e2;fontColor=#ffffff;strokeColor=#006EAF;gradientColor=default;" vertex="1" parent="1">
          <mxGeometry x="610" y="130" width="230" height="30" as="geometry" />
        </mxCell>
        <mxCell id="WfYVW7RB1-EYjMAiuS7r-14" value="&lt;span style=&quot;font-size: 36px;&quot;&gt;\(k\) Redundant Blocks&lt;/span&gt;" style="text;html=1;align=center;verticalAlign=middle;whiteSpace=wrap;rounded=0;fillColor=#d80073;fontColor=#ffffff;strokeColor=#A50040;gradientColor=default;" vertex="1" parent="1">
          <mxGeometry x="553.75" y="540" width="327.5" height="30" as="geometry" />
        </mxCell>
        <mxCell id="WfYVW7RB1-EYjMAiuS7r-15" value="" style="shape=curlyBracket;whiteSpace=wrap;html=1;rounded=1;labelPosition=left;verticalLabelPosition=middle;align=right;verticalAlign=middle;rotation=-90;size=0.45454545454545453;fillColor=#d80073;fontColor=#ffffff;strokeColor=#A50040;" vertex="1" parent="1">
          <mxGeometry x="690" y="310" width="55" height="370" as="geometry" />
        </mxCell>
      </root>
    </mxGraphModel>
  </diagram>
</mxfile>
